<svg width="98" height="72" viewBox="0 0 98 72" fill="none" xmlns="http://www.w3.org/2000/svg">
<path fill-rule="evenodd" clip-rule="evenodd" d="M89.5775 26.1965V16.3929C89.5775 5.93546 84.3553 0.705811 73.9099 0.705811V0.715652C61.027 0.715652 52.6824 4.59937 48.401 12.5872C44.7835 19.3373 44.7791 27.8144 44.7765 36.0122C44.7695 51.9467 44.7638 63.458 23.5035 63.458V63.4507C18.2807 63.4507 15.6692 60.8368 15.6692 55.6082V45.8036C15.6692 40.0524 13.058 36.7832 7.83397 35.9995C13.058 35.2164 15.6692 31.947 15.6692 26.1965V16.3929C15.6692 11.1641 18.2807 8.5499 23.5035 8.5499V8.54705H40.574C40.5971 8.50432 40.6149 8.46003 40.6384 8.41859C42.2286 5.4509 44.2118 2.88308 46.5749 0.71099H23.5035V0.705811C23.4509 0.705811 23.4041 0.71099 23.3529 0.71099H22.0349V0.75424C12.575 1.23621 7.83397 6.44151 7.83397 16.3929V26.1965C7.83397 30.1178 5.22247 32.0783 0 32.0783V39.9211C5.22247 39.9211 7.83397 41.8818 7.83397 45.8036V55.6082C7.83397 66.0639 13.058 71.294 23.5035 71.294V71.2855C36.3685 71.2855 44.7004 67.4057 48.9748 59.4217C52.5872 52.6775 52.5916 44.2059 52.5942 36.0148C52.6019 20.0669 52.6073 8.54316 73.9099 8.54316V8.5499C79.1323 8.5499 81.7438 11.1641 81.7438 16.3929V26.1965C81.7438 31.947 84.3553 35.2164 89.5775 35.9995C84.3553 36.7832 81.7438 40.0524 81.7438 45.8036V55.6082C81.7438 60.8368 79.1323 63.4507 73.9099 63.4507H56.8088C56.7842 63.4953 56.7632 63.5437 56.7405 63.5893C55.1526 66.5518 53.1734 69.1163 50.8175 71.2855H73.9099V71.294C84.3553 71.294 89.5775 66.0639 89.5775 55.6082V45.8036C89.5775 41.8818 92.189 39.9211 97.4118 39.9211V32.0783C92.189 32.0783 89.5775 30.1178 89.5775 26.1965Z" fill="url(#paint0_linear_42_275)"/>
<defs>
<linearGradient id="paint0_linear_42_275" x1="42.6244" y1="-27.9834" x2="-8.6403" y2="59.0491" gradientUnits="userSpaceOnUse">
<stop stop-color="white"/>
<stop offset="1" stop-color="white" stop-opacity="0.8"/>
</linearGradient>
</defs>
</svg>
