<svg viewBox="0 0 114 48" fill="none" xmlns="http://www.w3.org/2000/svg">
<path fill-rule="evenodd" clip-rule="evenodd" d="M59.9176 17.0505V10.493C59.9176 3.49807 56.4245 0 49.4376 0V0.0065828C40.8204 0.0065828 35.2388 2.60436 32.375 7.94735C29.9553 12.4625 29.9523 18.1327 29.9506 23.6161C29.9459 34.2746 29.9421 41.9744 15.7213 41.9744V41.9695C12.2278 41.9695 10.481 40.2211 10.481 36.7237V30.1655C10.481 26.3186 8.73438 24.1319 5.24007 23.6077C8.73438 23.0838 10.481 20.8969 10.481 17.0505V10.493C10.481 6.99544 12.2278 5.24684 15.7213 5.24684V5.24493H27.1396C27.155 5.21635 27.1669 5.18673 27.1827 5.15901C28.2463 3.17395 29.5728 1.45636 31.1535 0.00346463H15.7213V0C15.6861 0 15.6548 0.00346463 15.6205 0.00346463H14.7389V0.0323943C8.41132 0.354778 5.24007 3.83656 5.24007 10.493V17.0505C5.24007 19.6734 3.49327 20.9848 0 20.9848V26.2307C3.49327 26.2307 5.24007 27.5423 5.24007 30.1655V36.7237C5.24007 43.7174 8.73438 47.2158 15.7213 47.2158V47.2101C24.3265 47.2101 29.8997 44.6149 32.7588 39.2745C35.1751 34.7634 35.178 29.0968 35.1797 23.6179C35.1849 12.9504 35.1886 5.24233 49.4376 5.24233V5.24684C52.9309 5.24684 54.6777 6.99544 54.6777 10.493V17.0505C54.6777 20.8969 56.4245 23.0838 59.9176 23.6077C56.4245 24.1319 54.6777 26.3186 54.6777 30.1655V36.7237C54.6777 40.2211 52.9309 41.9695 49.4376 41.9695H37.9989C37.9824 41.9993 37.9684 42.0317 37.9532 42.0622C36.8911 44.0438 35.5672 45.7591 33.9913 47.2101H49.4376V47.2158C56.4245 47.2158 59.9176 43.7174 59.9176 36.7237V30.1655C59.9176 27.5423 61.6644 26.2307 65.1578 26.2307V20.9848C61.6644 20.9848 59.9176 19.6734 59.9176 17.0505Z" fill="url(#paint0_linear_0_1)"/>
<path fill-rule="evenodd" clip-rule="evenodd" d="M80.1555 9.22598C80.1555 8.79537 80.0875 8.4101 79.9515 8.07014C79.8835 7.90016 79.807 7.73869 79.722 7.58571C79.637 7.43273 79.5322 7.29391 79.4076 7.16926C79.2036 6.93129 78.9373 6.72166 78.6087 6.54035L78.4047 6.43836C78.3367 6.40437 78.2631 6.37604 78.1837 6.35337C78.5577 6.1494 78.8693 5.88877 79.1186 5.57148C79.4926 5.09554 79.6795 4.49496 79.6795 3.76972C79.6795 3.11247 79.5549 2.57422 79.3056 2.15494C79.0563 1.73566 78.722 1.39571 78.3027 1.13508C77.9061 0.897109 77.4642 0.727134 76.9769 0.625147C76.501 0.523161 76.0364 0.472168 75.5831 0.472168H71.0107C70.8861 0.472168 70.8237 0.540158 70.8237 0.67614V12.7275C70.8237 12.8635 70.8861 12.9315 71.0107 12.9315H75.5831C76.127 12.9315 76.6766 12.8692 77.2319 12.7445C77.7758 12.6312 78.2687 12.4272 78.7107 12.1326C79.1413 11.838 79.4926 11.4527 79.7645 10.9767C80.0252 10.4895 80.1555 9.90589 80.1555 9.22598ZM76.6199 4.16067C76.6199 4.52329 76.501 4.79525 76.263 4.97656C76.0364 5.1692 75.6737 5.26552 75.1751 5.26552H73.8833V3.1918H75.0562C75.6001 3.1918 76.0024 3.27679 76.263 3.44677C76.501 3.60541 76.6199 3.84338 76.6199 4.16067ZM73.8833 10.1779H75.2431C75.3451 10.1779 75.4499 10.1722 75.5576 10.1609C75.6652 10.1495 75.7757 10.1325 75.889 10.1099C76.093 10.0759 76.2857 10.0135 76.467 9.92289C76.6143 9.84357 76.7389 9.71892 76.8409 9.54894C76.9429 9.40163 76.9939 9.20332 76.9939 8.95402C76.9939 8.54607 76.8522 8.25712 76.569 8.08714C76.2403 7.91716 75.7927 7.83217 75.2261 7.83217H73.8833V10.1779ZM91.0027 9.22598C91.0027 8.79537 90.9347 8.4101 90.7987 8.07014C90.7307 7.90016 90.6542 7.73869 90.5693 7.58571C90.4843 7.43273 90.3794 7.29391 90.2548 7.16926C90.0508 6.93129 89.7845 6.72166 89.4559 6.54035L89.2519 6.43836C89.1839 6.40437 89.1103 6.37604 89.031 6.35337C89.4049 6.1494 89.7165 5.88877 89.9658 5.57148C90.3398 5.09554 90.5268 4.49496 90.5268 3.76972C90.5268 3.11247 90.4021 2.57422 90.1528 2.15494C89.9035 1.73566 89.5692 1.39571 89.1499 1.13508C88.7533 0.897109 88.3114 0.727134 87.8241 0.625147C87.3482 0.523161 86.8836 0.472168 86.4303 0.472168H81.8579C81.7333 0.472168 81.671 0.540158 81.671 0.67614V12.7275C81.671 12.8635 81.7333 12.9315 81.8579 12.9315H86.4303C86.9742 12.9315 87.5238 12.8692 88.0791 12.7445C88.623 12.6312 89.1159 12.4272 89.5579 12.1326C89.9885 11.838 90.3398 11.4527 90.6117 10.9767C90.8724 10.4895 91.0027 9.90589 91.0027 9.22598ZM87.1102 4.97656C87.3482 4.79525 87.4672 4.52329 87.4672 4.16067C87.4672 3.84338 87.3482 3.60541 87.1102 3.44677C86.8496 3.27679 86.4473 3.1918 85.9034 3.1918H84.7305V5.26552H86.0224C86.521 5.26552 86.8836 5.1692 87.1102 4.97656ZM86.0904 10.1779H84.7305V7.83217H86.0734C86.64 7.83217 87.0876 7.91716 87.4162 8.08714C87.6995 8.25712 87.8411 8.54607 87.8411 8.95402C87.8411 9.20332 87.7901 9.40163 87.6881 9.54894C87.5862 9.71892 87.4615 9.84357 87.3142 9.92289C87.1329 10.0135 86.9402 10.0759 86.7363 10.1099C86.623 10.1325 86.5125 10.1495 86.4048 10.1609C86.2972 10.1722 86.1923 10.1779 86.0904 10.1779Z" fill="#45997B"/>
<path fill-rule="evenodd" clip-rule="evenodd" d="M113.211 24.116C112.974 23.6967 112.673 23.3397 112.311 23.0451C112.129 22.9091 111.939 22.7845 111.741 22.6712C111.543 22.5578 111.33 22.4559 111.104 22.3652C110.9 22.2859 110.701 22.2094 110.509 22.1357C110.316 22.0621 110.124 21.9969 109.931 21.9403C109.704 21.8609 109.478 21.776 109.251 21.6853C109.16 21.6513 109.075 21.6145 108.996 21.5748L108.775 21.4643C108.718 21.4303 108.673 21.3935 108.639 21.3538C108.605 21.3142 108.577 21.2774 108.554 21.2434C108.509 21.164 108.486 21.062 108.486 20.9374C108.486 20.7901 108.514 20.6768 108.571 20.5974C108.628 20.5068 108.713 20.4218 108.826 20.3425C108.962 20.2632 109.087 20.2178 109.2 20.2065C109.347 20.1725 109.5 20.1555 109.659 20.1555C109.931 20.1555 110.237 20.2348 110.577 20.3935C110.883 20.5521 111.138 20.7561 111.342 21.0054C111.398 21.096 111.483 21.1414 111.597 21.1414C111.71 21.1527 111.806 21.113 111.886 21.0224L113.568 19.1696C113.636 19.0903 113.67 18.9997 113.67 18.8977C113.67 18.807 113.631 18.722 113.551 18.6427C113.042 18.1554 112.435 17.7815 111.733 17.5209C111.041 17.2602 110.367 17.1299 109.71 17.1299C109.438 17.1299 109.166 17.1497 108.894 17.1894C108.622 17.2291 108.35 17.2829 108.078 17.3509C107.512 17.5095 107.019 17.7418 106.599 18.0478C106.157 18.3764 105.8 18.79 105.529 19.2886C105.245 19.7872 105.104 20.3935 105.104 21.1074C105.104 21.6853 105.194 22.1726 105.376 22.5692C105.568 22.9885 105.806 23.3397 106.089 23.623C106.395 23.9063 106.73 24.133 107.092 24.3029C107.262 24.3936 107.435 24.4758 107.611 24.5494C107.786 24.6231 107.971 24.6882 108.163 24.7449C108.344 24.8015 108.514 24.8554 108.673 24.9064C108.832 24.9574 108.979 25.0112 109.115 25.0678C109.387 25.1812 109.602 25.2831 109.761 25.3738C109.931 25.4871 110.044 25.5948 110.101 25.6968C110.158 25.7647 110.186 25.8781 110.186 26.0367C110.186 26.116 110.18 26.1897 110.169 26.2577C110.158 26.3257 110.135 26.388 110.101 26.4447C110.044 26.5466 109.976 26.6316 109.897 26.6996C109.806 26.7676 109.682 26.8186 109.523 26.8526C109.444 26.8753 109.364 26.8923 109.285 26.9036C109.206 26.9149 109.121 26.9206 109.03 26.9206C108.667 26.9206 108.288 26.8129 107.891 26.5976C107.495 26.3937 107.177 26.1387 106.939 25.8327C106.871 25.7421 106.781 25.6968 106.667 25.6968C106.554 25.6968 106.463 25.7364 106.395 25.8157L104.662 27.6515C104.594 27.7308 104.56 27.8186 104.56 27.915C104.56 28.0113 104.594 28.0934 104.662 28.1614C105.16 28.728 105.812 29.1699 106.616 29.4872C107.41 29.7819 108.214 29.9292 109.03 29.9292C109.313 29.9292 109.594 29.9122 109.871 29.8782C110.149 29.8442 110.424 29.7819 110.696 29.6912C111.24 29.5212 111.733 29.2663 112.175 28.9263C112.617 28.575 112.962 28.1388 113.211 27.6175C113.461 27.1076 113.585 26.4843 113.585 25.7477C113.585 25.0905 113.461 24.5466 113.211 24.116ZM81.6173 23.674C81.6173 22.5068 81.4303 21.521 81.0563 20.7164C80.6597 19.9119 80.1555 19.2716 79.5436 18.7957C78.9316 18.3197 78.2234 17.9798 77.4188 17.7758C76.6483 17.5719 75.8607 17.4699 75.0562 17.4699H71.0277C70.971 17.4699 70.9229 17.4897 70.8832 17.5294C70.8436 17.569 70.8237 17.6172 70.8237 17.6738V29.7252C70.8237 29.8612 70.8917 29.9292 71.0277 29.9292H75.1751C75.957 29.9292 76.7333 29.8102 77.5038 29.5722C78.2744 29.3343 78.9656 28.9603 79.5775 28.4504C80.1895 27.9404 80.6824 27.2832 81.0563 26.4786C81.4303 25.6967 81.6173 24.7619 81.6173 23.674ZM74.9202 27.0056H74.0023V20.3765H74.9882C75.4414 20.3765 75.872 20.4275 76.28 20.5295C76.6993 20.6314 77.0619 20.8127 77.3678 21.0734C77.6851 21.3 77.9401 21.6286 78.1327 22.0592C78.3254 22.5012 78.4217 23.0394 78.4217 23.674C78.4217 24.2973 78.3254 24.8299 78.1327 25.2718C77.9401 25.6911 77.6851 26.0254 77.3678 26.2747C77.0279 26.5466 76.6596 26.7279 76.263 26.8186C75.8211 26.9433 75.3735 27.0056 74.9202 27.0056ZM94.3544 29.6232C94.3771 29.6686 94.3884 29.7025 94.3884 29.7252C94.3884 29.8612 94.3204 29.9292 94.1844 29.9292H91.1758C91.0852 29.9292 91.0285 29.8839 91.0058 29.7932L90.173 27.5665H86.1105L85.3456 29.7932C85.3116 29.8839 85.2493 29.9292 85.1586 29.9292H82.218C82.1387 29.9292 82.0821 29.9009 82.0481 29.8442C82.0141 29.7875 82.0084 29.7195 82.0311 29.6402L86.7224 17.6058C86.7564 17.5152 86.8187 17.4699 86.9094 17.4699H89.544C89.6234 17.4699 89.68 17.5152 89.714 17.6058L94.3544 29.6232ZM87.0284 24.8129L88.1672 21.5153L89.2891 24.8129H87.0284ZM104.477 17.7758L100.143 25.0168V29.7252C100.143 29.8612 100.08 29.9292 99.9556 29.9292H97.117C97.0603 29.9292 97.0122 29.9094 96.9725 29.8697C96.9329 29.83 96.913 29.7819 96.913 29.7252V24.9489L92.6466 17.7758C92.59 17.7078 92.59 17.6398 92.6466 17.5719C92.6806 17.5039 92.7373 17.4699 92.8166 17.4699H96.1141C96.1935 17.4699 96.2501 17.5039 96.2841 17.5719L98.5618 21.3793L100.823 17.5719C100.868 17.5039 100.93 17.4699 101.009 17.4699H104.29C104.381 17.4699 104.443 17.5039 104.477 17.5719C104.511 17.6398 104.511 17.7078 104.477 17.7758Z" fill="#45997B" fill-opacity="0.7"/>
<path fill-rule="evenodd" clip-rule="evenodd" d="M79.3821 42.159C79.2858 42.0627 79.1696 42.0145 79.0336 42.0145H78.6767V34.9605C78.6767 34.8245 78.6285 34.7084 78.5322 34.612C78.4359 34.5157 78.3197 34.4676 78.1837 34.4676H75.957C75.7757 34.4676 75.6397 34.5469 75.5491 34.7055L70.9087 42.2015C70.8521 42.2808 70.8237 42.3658 70.8237 42.4565V44.2072C70.8237 44.3432 70.8747 44.4594 70.9767 44.5557C71.0787 44.652 71.1977 44.7002 71.3337 44.7002H75.872V46.4339C75.872 46.5699 75.9202 46.6861 76.0165 46.7824C76.1128 46.8787 76.229 46.9269 76.365 46.9269H78.1837C78.3197 46.9269 78.4359 46.8787 78.5322 46.7824C78.6285 46.6861 78.6767 46.5699 78.6767 46.4339V44.7002H79.0336C79.1696 44.7002 79.2858 44.652 79.3821 44.5557C79.4784 44.4594 79.5266 44.3432 79.5266 44.2072V42.5075C79.5266 42.3715 79.4784 42.2553 79.3821 42.159ZM75.872 42.0145H74.1213L75.872 39.0569V42.0145Z" fill="#45997B"/>
<path fill-rule="evenodd" clip-rule="evenodd" d="M85.1083 34.6715C85.1083 34.5356 85.0403 34.4676 84.9043 34.4676H81.9807C81.8447 34.4676 81.7767 34.5356 81.7767 34.6715V46.7229C81.7767 46.8589 81.8447 46.9269 81.9807 46.9269H84.9043C85.0403 46.9269 85.1083 46.8589 85.1083 46.7229V34.6715ZM96.3294 34.6715C96.3294 34.5356 96.2615 34.4676 96.1255 34.4676H87.1167C86.992 34.4676 86.9297 34.5356 86.9297 34.6715V37.1532C86.9297 37.2892 86.992 37.3572 87.1167 37.3572H90.0063V46.7229C90.0063 46.7796 90.0261 46.8277 90.0658 46.8674C90.1055 46.9071 90.1536 46.9269 90.2103 46.9269H93.0489C93.1056 46.9269 93.1537 46.9071 93.1934 46.8674C93.233 46.8277 93.2529 46.7796 93.2529 46.7229V37.3572H96.1255C96.2615 37.3572 96.3294 37.2892 96.3294 37.1532V34.6715Z" fill="#45997B" fill-opacity="0.7"/>
<defs>
<linearGradient id="paint0_linear_0_1" x1="28.5111" y1="-19.1899" x2="-5.77942" y2="39.0253" gradientUnits="userSpaceOnUse">
<stop stop-color="#45997B"/>
<stop offset="1" stop-color="#45997B" stop-opacity="0.7"/>
</linearGradient>
</defs>
</svg>