<svg width="98" height="40" viewBox="0 0 98 40" fill="none" xmlns="http://www.w3.org/2000/svg">
<path fill-rule="evenodd" clip-rule="evenodd" d="M50.2183 14.6447V9.14899C50.2183 3.28671 47.2906 0.355057 41.4348 0.355057V0.360574C34.2125 0.360574 29.5344 2.53772 27.1342 7.01555C25.1062 10.7996 25.1037 15.5516 25.1023 20.1472C25.0983 29.0798 25.0952 35.5328 13.1763 35.5328V35.5288C10.2484 35.5288 8.78437 34.0634 8.78437 31.1324V25.6361C8.78437 22.4121 7.32048 20.5794 4.39182 20.1401C7.32048 19.7011 8.78437 17.8683 8.78437 14.6447V9.14899C8.78437 6.21778 10.2484 4.75231 13.1763 4.75231V4.75072H22.7463C22.7592 4.72676 22.7692 4.70194 22.7824 4.67871C23.6739 3.01507 24.7857 1.5756 26.1105 0.35796H13.1763V0.355057C13.1469 0.355057 13.1206 0.35796 13.0919 0.35796H12.353V0.382206C7.04971 0.652389 4.39182 3.57039 4.39182 9.14899V14.6447C4.39182 16.8429 2.92778 17.9419 0 17.9419V22.3384C2.92778 22.3384 4.39182 23.4376 4.39182 25.6361V31.1324C4.39182 36.9936 7.32048 39.9256 13.1763 39.9256V39.9208C20.3886 39.9208 25.0596 37.7458 27.4559 33.2702C29.481 29.4895 29.4835 24.7405 29.4849 20.1487C29.4893 11.2085 29.4923 4.74854 41.4348 4.74854V4.75231C44.3626 4.75231 45.8266 6.21778 45.8266 9.14899V14.6447C45.8266 17.8683 47.2907 19.7011 50.2183 20.1401C47.2907 20.5794 45.8266 22.4121 45.8266 25.6361V31.1324C45.8266 34.0634 44.3626 35.5288 41.4348 35.5288H31.8477C31.8339 35.5537 31.8222 35.5809 31.8094 35.6064C30.9192 37.2672 29.8097 38.7048 28.4889 39.9208H41.4348V39.9256C47.2906 39.9256 50.2183 36.9936 50.2183 31.1324V25.6361C50.2183 23.4376 51.6823 22.3384 54.6103 22.3384V17.9419C51.6823 17.9419 50.2183 16.8429 50.2183 14.6447" fill="#F3F3F3"/>
<path fill-rule="evenodd" clip-rule="evenodd" d="M69.0183 7.5375C69.0183 7.16673 68.9597 6.83498 68.8426 6.54226C68.7841 6.3959 68.7182 6.25686 68.6451 6.12514C68.5719 5.99341 68.4816 5.87389 68.3743 5.76656C68.1987 5.56165 67.9694 5.38114 67.6864 5.22503L67.5108 5.13721C67.4522 5.10794 67.3888 5.08355 67.3205 5.06403C67.6425 4.8884 67.9108 4.66398 68.1255 4.39078C68.4475 3.98097 68.6085 3.46384 68.6085 2.83937C68.6085 2.27344 68.5011 1.80998 68.2865 1.44896C68.0718 1.08794 67.784 0.79522 67.423 0.570801C67.0815 0.365897 66.7009 0.219539 66.2814 0.131723C65.8716 0.0439074 65.4715 0 65.0812 0H61.1441C61.0368 0 60.9832 0.0585431 60.9832 0.175631V10.5525C60.9832 10.6696 61.0368 10.7281 61.1441 10.7281H65.0812C65.5496 10.7281 66.0228 10.6745 66.5009 10.5671C66.9693 10.4696 67.3937 10.2939 67.7742 10.0402C68.145 9.78656 68.4475 9.45481 68.6817 9.04501C68.9061 8.62544 69.0183 8.12294 69.0183 7.5375ZM65.974 3.176C65.974 3.48823 65.8716 3.7224 65.6667 3.87852C65.4715 4.0444 65.1593 4.12733 64.73 4.12733H63.6176V2.34175H64.6275C65.0959 2.34175 65.4422 2.41493 65.6667 2.56129C65.8716 2.69789 65.974 2.90279 65.974 3.176ZM63.6176 8.35712H64.7885C64.8763 8.35712 64.9666 8.35224 65.0593 8.34248C65.152 8.33272 65.2471 8.31809 65.3447 8.29857C65.5203 8.2693 65.6862 8.21564 65.8423 8.13758C65.9691 8.06928 66.0765 7.96195 66.1643 7.81559C66.2521 7.68874 66.296 7.51799 66.296 7.30333C66.296 6.95207 66.174 6.70326 65.9301 6.5569C65.6471 6.41054 65.2617 6.33736 64.7739 6.33736H63.6176V8.35712ZM78.3583 7.5375C78.3583 7.16673 78.2998 6.83498 78.1827 6.54226C78.1242 6.3959 78.0583 6.25686 77.9851 6.12514C77.9119 5.99341 77.8217 5.87389 77.7143 5.76656C77.5387 5.56165 77.3094 5.38114 77.0265 5.22503L76.8508 5.13721C76.7923 5.10794 76.7289 5.08355 76.6606 5.06403C76.9826 4.8884 77.2509 4.66398 77.4655 4.39078C77.7875 3.98097 77.9485 3.46384 77.9485 2.83937C77.9485 2.27344 77.8412 1.80998 77.6265 1.44896C77.4119 1.08794 77.124 0.79522 76.763 0.570801C76.4215 0.365897 76.041 0.219539 75.6214 0.131723C75.2116 0.0439074 74.8116 0 74.4213 0H70.4842C70.3769 0 70.3232 0.0585431 70.3232 0.175631V10.5525C70.3232 10.6696 70.3769 10.7281 70.4842 10.7281H74.4213C74.8896 10.7281 75.3628 10.6745 75.8409 10.5671C76.3093 10.4696 76.7337 10.2939 77.1143 10.0402C77.4851 9.78656 77.7875 9.45481 78.0217 9.04501C78.2461 8.62544 78.3583 8.12294 78.3583 7.5375ZM75.0067 3.87852C75.2116 3.7224 75.3141 3.48823 75.3141 3.176C75.3141 2.90279 75.2116 2.69789 75.0067 2.56129C74.7823 2.41493 74.4359 2.34175 73.9675 2.34175H72.9577V4.12733H74.07C74.4993 4.12733 74.8116 4.0444 75.0067 3.87852ZM74.1285 8.35712H72.9577V6.33736H74.1139C74.6018 6.33736 74.9872 6.41054 75.2701 6.5569C75.5141 6.70326 75.636 6.95207 75.636 7.30333C75.636 7.51799 75.5921 7.68874 75.5043 7.81559C75.4165 7.96195 75.3092 8.06928 75.1823 8.13758C75.0262 8.21564 74.8603 8.2693 74.6847 8.29857C74.5871 8.31809 74.492 8.33272 74.3993 8.34248C74.3066 8.35224 74.2164 8.35712 74.1285 8.35712Z" fill="#F3F3F3"/>
<path fill-rule="evenodd" clip-rule="evenodd" d="M97.4813 20.3586C97.2764 19.9976 97.0178 19.6902 96.7056 19.4365C96.5495 19.3194 96.386 19.2121 96.2153 19.1145C96.0445 19.017 95.8616 18.9291 95.6664 18.8511C95.4908 18.7828 95.3201 18.7169 95.1542 18.6535C94.9883 18.5901 94.8224 18.534 94.6566 18.4852C94.4614 18.4169 94.2663 18.3437 94.0711 18.2656C93.9931 18.2364 93.9199 18.2047 93.8516 18.1705L93.6613 18.0754C93.6125 18.0461 93.5735 18.0144 93.5442 17.9802C93.515 17.9461 93.4906 17.9144 93.471 17.8851C93.432 17.8168 93.4125 17.729 93.4125 17.6217C93.4125 17.4948 93.4369 17.3972 93.4857 17.3289C93.5345 17.2509 93.6076 17.1777 93.7052 17.1094C93.8223 17.0411 93.9296 17.0021 94.0272 16.9923C94.1541 16.963 94.2858 16.9484 94.4224 16.9484C94.6566 16.9484 94.92 17.0167 95.2127 17.1533C95.4762 17.2899 95.6957 17.4655 95.8713 17.6802C95.9201 17.7583 95.9933 17.7973 96.0909 17.7973C96.1885 17.807 96.2714 17.7729 96.3397 17.6948L97.7886 16.0995C97.8472 16.0312 97.8765 15.9532 97.8765 15.8653C97.8765 15.7873 97.8423 15.7141 97.774 15.6458C97.3349 15.2262 96.8129 14.9043 96.208 14.6798C95.6128 14.4554 95.0322 14.3432 94.4663 14.3432C94.2321 14.3432 93.9979 14.3603 93.7638 14.3944C93.5296 14.4286 93.2954 14.4749 93.0612 14.5335C92.5734 14.6701 92.1489 14.8701 91.7879 15.1336C91.4074 15.4165 91.1 15.7727 90.8658 16.202C90.6219 16.6313 90.5 17.1533 90.5 17.768C90.5 18.2656 90.578 18.6852 90.7341 19.0267C90.9 19.3877 91.1049 19.6902 91.3488 19.9341C91.6123 20.1781 91.9001 20.3732 92.2124 20.5196C92.3587 20.5976 92.5075 20.6684 92.6588 20.7318C92.81 20.7952 92.9685 20.8513 93.1344 20.9001C93.2905 20.9489 93.4369 20.9952 93.5735 21.0392C93.7101 21.0831 93.8369 21.1294 93.954 21.1782C94.1882 21.2758 94.3736 21.3636 94.5102 21.4416C94.6566 21.5392 94.7541 21.6319 94.8029 21.7197C94.8517 21.7783 94.8761 21.8758 94.8761 22.0124C94.8761 22.0807 94.8712 22.1442 94.8615 22.2027C94.8517 22.2613 94.8322 22.3149 94.8029 22.3637C94.7541 22.4515 94.6956 22.5247 94.6273 22.5832C94.5492 22.6418 94.4419 22.6857 94.3053 22.715C94.237 22.7345 94.1687 22.7491 94.1004 22.7589C94.0321 22.7686 93.9589 22.7735 93.8809 22.7735C93.5686 22.7735 93.2418 22.6808 92.9002 22.4954C92.5587 22.3198 92.2855 22.1003 92.0806 21.8368C92.0221 21.7588 91.944 21.7197 91.8465 21.7197C91.7489 21.7197 91.6708 21.7539 91.6123 21.8222L90.1194 23.4029C90.0609 23.4712 90.0316 23.5468 90.0316 23.6297C90.0316 23.7126 90.0609 23.7834 90.1194 23.8419C90.5487 24.3298 91.1098 24.7103 91.8025 24.9835C92.4856 25.2372 93.1783 25.3641 93.8809 25.3641C94.1248 25.3641 94.3663 25.3494 94.6053 25.3202C94.8444 25.2909 95.081 25.2372 95.3152 25.1592C95.7835 25.0128 96.208 24.7933 96.5885 24.5005C96.969 24.1981 97.2666 23.8224 97.4813 23.3736C97.696 22.9345 97.8033 22.3979 97.8033 21.7636C97.8033 21.1977 97.696 20.7294 97.4813 20.3586ZM70.277 19.978C70.277 18.973 70.116 18.1242 69.794 17.4314C69.4525 16.7386 69.0183 16.1873 68.4914 15.7775C67.9645 15.3677 67.3547 15.075 66.6619 14.8994C65.9984 14.7237 65.3203 14.6359 64.6275 14.6359H61.1588C61.11 14.6359 61.0685 14.653 61.0344 14.6872C61.0002 14.7213 60.9832 14.7628 60.9832 14.8116V25.1884C60.9832 25.3055 61.0417 25.3641 61.1588 25.3641H64.73C65.4032 25.3641 66.0716 25.2616 66.7351 25.0567C67.3986 24.8518 67.9938 24.5298 68.5207 24.0907C69.0476 23.6517 69.472 23.0857 69.794 22.393C70.116 21.7197 70.277 20.9148 70.277 19.978ZM64.5104 22.8467H63.7201V17.1387H64.569C64.9593 17.1387 65.33 17.1826 65.6813 17.2704C66.0423 17.3582 66.3545 17.5143 66.618 17.7387C66.8912 17.9339 67.1107 18.2169 67.2766 18.5876C67.4425 18.9682 67.5254 19.4316 67.5254 19.978C67.5254 20.5147 67.4425 20.9733 67.2766 21.3538C67.1107 21.7148 66.8912 22.0027 66.618 22.2173C66.3253 22.4515 66.0082 22.6076 65.6667 22.6857C65.2861 22.793 64.9007 22.8467 64.5104 22.8467ZM81.2443 25.1006C81.2638 25.1397 81.2736 25.1689 81.2736 25.1884C81.2736 25.3055 81.215 25.3641 81.098 25.3641H78.5074C78.4293 25.3641 78.3806 25.325 78.361 25.247L77.6439 23.3297H74.1459L73.4873 25.247C73.458 25.325 73.4043 25.3641 73.3263 25.3641H70.7943C70.726 25.3641 70.6772 25.3397 70.6479 25.2909C70.6186 25.2421 70.6138 25.1836 70.6333 25.1153L74.6728 14.753C74.7021 14.675 74.7557 14.6359 74.8338 14.6359H77.1023C77.1706 14.6359 77.2194 14.675 77.2487 14.753L81.2443 25.1006ZM74.9362 20.9587L75.9168 18.1193L76.8828 20.9587H74.9362ZM89.9604 14.8994L86.2283 21.1343V25.1884C86.2283 25.3055 86.1746 25.3641 86.0673 25.3641H83.6231C83.5743 25.3641 83.5328 25.347 83.4987 25.3128C83.4645 25.2787 83.4474 25.2372 83.4474 25.1884V21.0757L79.7738 14.8994C79.725 14.8408 79.725 14.7823 79.7738 14.7237C79.8031 14.6652 79.8519 14.6359 79.9202 14.6359H82.7596C82.8279 14.6359 82.8766 14.6652 82.9059 14.7237L84.8671 18.0022L86.8137 14.7237C86.8527 14.6652 86.9064 14.6359 86.9747 14.6359H89.7994C89.8775 14.6359 89.9312 14.6652 89.9604 14.7237C89.9897 14.7823 89.9897 14.8408 89.9604 14.8994Z" fill="#F3F3F3"/>
<path fill-rule="evenodd" clip-rule="evenodd" d="M68.3523 35.8946C68.2694 35.8117 68.1694 35.7702 68.0523 35.7702H67.745V29.6963C67.745 29.5792 67.7035 29.4792 67.6205 29.3963C67.5376 29.3133 67.4376 29.2719 67.3205 29.2719H65.4032C65.2471 29.2719 65.13 29.3402 65.0519 29.4768L61.0563 35.9312C61.0075 35.9995 60.9832 36.0727 60.9832 36.1507V37.6582C60.9832 37.7753 61.0271 37.8753 61.1149 37.9583C61.2027 38.0412 61.3051 38.0827 61.4222 38.0827H65.33V39.5756C65.33 39.6926 65.3715 39.7927 65.4544 39.8756C65.5374 39.9585 65.6374 40 65.7545 40H67.3205C67.4376 40 67.5376 39.9585 67.6205 39.8756C67.7035 39.7927 67.745 39.6926 67.745 39.5756V38.0827H68.0523C68.1694 38.0827 68.2694 38.0412 68.3523 37.9583C68.4353 37.8753 68.4768 37.7753 68.4768 37.6582V36.1947C68.4768 36.0776 68.4353 35.9776 68.3523 35.8946ZM65.33 35.7702H63.8225L65.33 33.2236V35.7702Z" fill="#F3F3F3"/>
<path fill-rule="evenodd" clip-rule="evenodd" d="M73.2829 29.4475C73.2829 29.3304 73.2244 29.2719 73.1073 29.2719H70.5899C70.4728 29.2719 70.4143 29.3304 70.4143 29.4475V39.8244C70.4143 39.9415 70.4728 40 70.5899 40H73.1073C73.2244 40 73.2829 39.9415 73.2829 39.8244V29.4475ZM82.9449 29.4475C82.9449 29.3304 82.8864 29.2719 82.7693 29.2719H75.0123C74.9049 29.2719 74.8513 29.3304 74.8513 29.4475V31.5843C74.8513 31.7014 74.9049 31.76 75.0123 31.76H77.5004V39.8244C77.5004 39.8732 77.5175 39.9146 77.5516 39.9488C77.5858 39.9829 77.6272 40 77.676 40H80.1202C80.169 40 80.2105 39.9829 80.2446 39.9488C80.2788 39.9146 80.2958 39.8732 80.2958 39.8244V31.76H82.7693C82.8864 31.76 82.9449 31.7014 82.9449 31.5843V29.4475Z" fill="#F3F3F3"/>
</svg>
