<svg viewBox="0 0 671 280" fill="none" xmlns="http://www.w3.org/2000/svg">
  <path fill-rule="evenodd" clip-rule="evenodd" d="M353.334 101.331V62.6612c0-41.249-20.599-61.87702-61.801-61.87702v.038818c-50.815 0-83.73 15.319102-100.618 46.826602-14.269 26.6256-14.286 60.0624-14.297 92.3984-.027 62.853-.05 108.259-83.9099 108.259v-.029c-20.6008 0-30.9017-10.31-30.9017-30.934V178.67c0-22.686-10.2999-35.58-30.9057-38.672 20.6058-3.089 30.9057-15.985 30.9057-38.667V62.6612c0-20.625 10.3009-30.9365 30.9017-30.9365v-.0112h67.3339c.091-.1685.161-.3432.254-.5067 6.272-11.7059 14.095-21.83449 23.416-30.402189H92.7081V.78418c-.2071 0-.3918.020431-.5939.020431h-5.1989v.170598C49.6015 2.8763 30.9007 23.4083 30.9007 62.6612v38.6698c0 15.467-10.3009 23.2-30.9007 23.2v30.936c20.5998 0 30.9007 7.734 30.9007 23.203v38.674c0 41.241 20.6058 61.872 61.8074 61.872v-.034c50.7449 0 83.6099-15.304 100.4699-46.796 14.249-26.602 14.267-60.018 14.277-92.327.03-62.9061.052-108.3608 84.078-108.3608v.0265c20.6 0 30.901 10.3115 30.901 30.9365v38.6698c0 22.682 10.301 35.578 30.9 38.667-20.599 3.092-30.9 15.986-30.9 38.672v38.674c0 20.624-10.301 30.934-30.901 30.934h-67.454c-.097.176-.18.367-.269.547-6.264 11.685-14.071 21.8-23.363 30.357h91.086v.034c41.202 0 61.801-20.631 61.801-61.872V178.67c0-15.469 10.301-23.203 30.901-23.203v-30.936c-20.6 0-30.901-7.733-30.901-23.2Z" fill="#fff"/>
  <path fill-rule="evenodd" clip-rule="evenodd" d="M472.676 55.19c0-2.5393-.401-4.8113-1.203-6.816-.4-1.0023-.852-1.9546-1.353-2.8567-.501-.9021-1.119-1.7207-1.854-2.4557-1.203-1.4034-2.773-2.6396-4.711-3.7088l-1.203-.6014c-.401-.2004-.835-.3675-1.303-.5011 2.205-1.2029 4.043-2.7398 5.513-4.6109 2.205-2.8066 3.308-6.3482 3.308-10.6249 0-3.8758-.735-7.0499-2.205-9.5224-1.471-2.4724-3.442-4.47713-5.914-6.01408-2.339-1.4033-4.945-2.40564-7.819-3.00705-2.806-.60142-5.546-.90212-8.219-.90212H418.75c-.735 0-1.103.40093-1.103 1.20282V75.8385c0 .8019.368 1.2028 1.103 1.2028h26.963c3.208 0 6.448-.3675 9.723-1.1026 3.207-.6682 6.114-1.871 8.72-3.6084 2.54-1.7375 4.611-4.0094 6.215-6.816 1.537-2.8735 2.305-6.3148 2.305-10.3243Zm-20.849-29.8701c0 2.1384-.701 3.7421-2.105 4.8113-1.336 1.136-3.474 1.704-6.415 1.704h-7.618V19.6065h6.917c3.207 0 5.579.5012 7.116 1.5035 1.404.9356 2.105 2.3388 2.105 4.2099Zm-16.138 35.4833h8.019c.602 0 1.22-.0334 1.855-.1002.634-.0669 1.286-.1671 1.954-.3007 1.203-.2005 2.339-.568 3.408-1.1026.869-.4678 1.604-1.2028 2.205-2.2052.602-.8687.903-2.0381.903-3.5082 0-2.4057-.836-4.1097-2.506-5.112-1.938-1.0024-4.578-1.5036-7.919-1.5036h-7.919v13.8325ZM536.642 55.19c0-2.5393-.401-4.8113-1.203-6.816-.4-1.0023-.852-1.9546-1.353-2.8567-.501-.9021-1.119-1.7207-1.854-2.4557-1.203-1.4034-2.773-2.6396-4.711-3.7088l-1.203-.6014c-.401-.2004-.835-.3675-1.303-.5011 2.205-1.2029 4.043-2.7398 5.513-4.6109 2.205-2.8066 3.308-6.3482 3.308-10.6249 0-3.8758-.735-7.0499-2.205-9.5224-1.471-2.4724-3.442-4.47713-5.914-6.01408-2.339-1.4033-4.945-2.40564-7.819-3.00705-2.806-.60142-5.546-.90212-8.219-.90212h-26.963c-.735 0-1.103.40093-1.103 1.20282V75.8385c0 .8019.368 1.2028 1.103 1.2028h26.963c3.208 0 6.448-.3675 9.723-1.1026 3.207-.6682 6.114-1.871 8.72-3.6084 2.54-1.7375 4.611-4.0094 6.215-6.816 1.537-2.8735 2.305-6.3148 2.305-10.3243Zm-22.954-25.0588c1.404-1.0692 2.105-2.6729 2.105-4.8113 0-1.8711-.701-3.2743-2.105-4.2099-1.537-1.0023-3.909-1.5035-7.116-1.5035h-6.917v12.2287h7.618c2.941 0 5.079-.568 6.415-1.704Zm-6.014 30.672h-8.019V46.9707h7.919c3.341 0 5.981.5012 7.919 1.5036 1.67 1.0023 2.506 2.7063 2.506 5.112 0 1.4701-.301 2.6395-.903 3.5082-.601 1.0024-1.336 1.7374-2.205 2.2052-1.069.5346-2.205.9021-3.408 1.1026-.668.1336-1.32.2338-1.954.3007-.635.0668-1.253.1002-1.855.1002Z" fill="#fff"/>
  <path fill-rule="evenodd" clip-rule="evenodd" d="M667.607 142.996c-1.403-2.472-3.174-4.577-5.312-6.315-1.069-.802-2.189-1.537-3.358-2.205-1.169-.668-2.422-1.27-3.759-1.804-1.203-.468-2.372-.919-3.508-1.353-1.136-.435-2.272-.819-3.408-1.153-1.337-.468-2.673-.969-4.009-1.504-.535-.2-1.036-.417-1.504-.651l-1.303-.652c-.334-.2-.601-.417-.802-.651-.2-.234-.367-.451-.501-.652-.267-.467-.401-1.069-.401-1.804 0-.869.167-1.537.501-2.005.334-.534.835-1.035 1.504-1.503.802-.468 1.537-.735 2.205-.802.869-.2 1.771-.301 2.706-.301 1.604 0 3.408.468 5.413 1.404 1.804.935 3.308 2.138 4.51 3.608.335.535.836.802 1.504.802.668.067 1.236-.167 1.704-.702l9.923-10.925c.401-.468.602-1.003.602-1.604 0-.535-.234-1.036-.702-1.504-3.007-2.873-6.582-5.078-10.725-6.615-4.076-1.537-8.052-2.306-11.928-2.306-1.604 0-3.208.117-4.811.351-1.604.234-3.208.552-4.812.952-3.341.936-6.248 2.306-8.72 4.11-2.606 1.938-4.711 4.377-6.315 7.317-1.671 2.941-2.506 6.516-2.506 10.725 0 3.409.535 6.282 1.604 8.621 1.136 2.472 2.539 4.544 4.21 6.214 1.804 1.671 3.775 3.007 5.914 4.01 1.002.534 2.021 1.019 3.057 1.453 1.036.434 2.121.819 3.257 1.153 1.07.334 2.072.651 3.008.952.935.301 1.804.618 2.606.952 1.603.669 2.873 1.27 3.809 1.805 1.002.668 1.67 1.303 2.004 1.904.334.401.501 1.069.501 2.005 0 .467-.033.902-.1 1.303-.067.401-.2.768-.401 1.102-.334.602-.735 1.103-1.203 1.504-.534.401-1.269.702-2.205.902-.467.134-.935.234-1.403.301-.468.067-.969.1-1.504.1-2.138 0-4.376-.635-6.715-1.905-2.339-1.202-4.21-2.706-5.613-4.51-.401-.535-.936-.802-1.604-.802s-1.203.234-1.604.702l-10.224 10.825c-.401.468-.601.986-.601 1.554 0 .568.2 1.052.601 1.453 2.94 3.341 6.783 5.947 11.527 7.818 4.678 1.738 9.422 2.607 14.233 2.607 1.671 0 3.325-.101 4.962-.301 1.637-.201 3.258-.568 4.862-1.103 3.207-1.002 6.114-2.506 8.72-4.51 2.606-2.072 4.644-4.644 6.114-7.718 1.47-3.007 2.206-6.683 2.206-11.026 0-3.876-.736-7.084-2.206-9.623Zm-186.31-2.606c0-6.883-1.103-12.696-3.308-17.441-2.339-4.744-5.313-8.52-8.921-11.327-3.609-2.806-7.785-4.811-12.53-6.014-4.544-1.202-9.188-1.804-13.932-1.804H418.85c-.334 0-.618.117-.852.351-.234.234-.351.518-.351.852v71.067c0 .802.401 1.203 1.203 1.203h24.457c4.611 0 9.189-.702 13.733-2.105 4.544-1.404 8.62-3.609 12.228-6.616 3.609-3.007 6.516-6.883 8.721-11.627 2.205-4.611 3.308-10.124 3.308-16.539Zm-39.493 19.646h-5.413v-39.092h5.814c2.673 0 5.212.301 7.618.902 2.472.602 4.61 1.671 6.415 3.208 1.871 1.337 3.374 3.274 4.51 5.814 1.136 2.606 1.704 5.78 1.704 9.522 0 3.675-.568 6.816-1.704 9.422-1.136 2.473-2.639 4.444-4.51 5.914-2.005 1.604-4.177 2.673-6.516 3.208-2.606.735-5.245 1.102-7.918 1.102Zm114.603 15.436c.134.268.201.468.201.602 0 .802-.401 1.203-1.203 1.203h-17.742c-.534 0-.869-.268-1.002-.802l-4.912-13.131h-23.956l-4.511 13.131c-.2.534-.568.802-1.102.802h-17.341c-.468 0-.802-.167-1.002-.502-.201-.334-.234-.735-.1-1.202l27.665-70.967c.2-.535.568-.802 1.102-.802h15.537c.467 0 .801.267 1.002.802l27.364 70.866Zm-43.201-28.366 6.716-19.446 6.615 19.446h-13.331ZM616.1 105.608l-25.56 42.701v27.765c0 .802-.367 1.203-1.102 1.203h-16.74c-.334 0-.618-.117-.852-.351-.234-.234-.35-.518-.35-.852v-28.166l-25.16-42.3c-.334-.401-.334-.802 0-1.202.201-.401.535-.602 1.003-.602h19.445c.468 0 .802.201 1.003.602l13.431 22.452 13.332-22.452c.267-.401.634-.602 1.102-.602h19.346c.534 0 .902.201 1.102.602.201.4.201.801 0 1.202Z" fill="#fff" fill-opacity=".7"/>
  <path fill-rule="evenodd" clip-rule="evenodd" d="M468.116 249.396c-.568-.568-1.253-.852-2.055-.852h-2.105v-41.598c0-.802-.284-1.487-.852-2.055-.568-.568-1.253-.852-2.055-.852h-13.131c-1.069 0-1.871.468-2.405 1.404l-27.365 44.204c-.334.467-.501.968-.501 1.503v10.324c0 .802.301 1.487.902 2.055.602.568 1.303.852 2.105.852h26.763v10.224c0 .802.284 1.487.852 2.055.568.568 1.253.852 2.055.852h10.725c.802 0 1.487-.284 2.055-.852.568-.568.852-1.253.852-2.055v-10.224h2.105c.802 0 1.487-.284 2.055-.852.568-.568.852-1.253.852-2.055v-10.023c0-.802-.284-1.487-.852-2.055Zm-20.699-.852h-10.324l10.324-17.441v17.441Z" fill="#fff"/>
  <path fill-rule="evenodd" clip-rule="evenodd" d="M501.883 205.242c0-.802-.401-1.203-1.203-1.203h-17.24c-.802 0-1.203.401-1.203 1.203v71.067c0 .802.401 1.203 1.203 1.203h17.24c.802 0 1.203-.401 1.203-1.203v-71.067Zm66.171 0c0-.802-.401-1.203-1.203-1.203h-53.124c-.735 0-1.103.401-1.103 1.203v14.635c0 .801.368 1.202 1.103 1.202h17.04v55.23c0 .334.117.618.35.852.234.234.518.351.852.351h16.74c.334 0 .618-.117.852-.351.234-.234.351-.518.351-.852v-55.23h16.939c.802 0 1.203-.401 1.203-1.202v-14.635Z" fill="#fff" fill-opacity=".7"/>
  <defs>
    <linearGradient id="a" x1="168.129" y1="-112.379" x2="-34.0812" y2="230.916" gradientUnits="userSpaceOnUse">
      <stop stop-color="#fff"/>
      <stop offset="1" stop-color="#fff" stop-opacity=".7"/>
    </linearGradient>
  </defs>
</svg>
