<svg fill="none" viewBox="0 0 24 22" xmlns="http://www.w3.org/2000/svg">
  <path
    d="M1.59137 14.3947C1.38936 14.1564 1.2189 13.946 1.08262 13.7731C1.2147 13.6196 1.37726 13.4355 1.56808 13.2284C2.1547 12.5918 3.00327 11.7435 4.0494 10.897C6.16452 9.18555 8.97536 7.57192 12 7.57192C15.0246 7.57192 17.8355 9.18555 19.9506 10.897C20.9967 11.7435 21.8453 12.5918 22.4319 13.2284C22.6227 13.4355 22.7853 13.6196 22.9174 13.7731C22.7811 13.946 22.6106 14.1564 22.4086 14.3947C21.8207 15.0881 20.971 16.0114 19.9239 16.9323C17.8023 18.7984 15.0004 20.5405 12 20.5405C8.99963 20.5405 6.19771 18.7984 4.07608 16.9323C3.02901 16.0114 2.17925 15.0881 1.59137 14.3947Z"
    stroke="currentColor"
    strokeWidth="1.7"
  />
  <path
    d="M15.7657 14.056C15.7657 16.2815 13.9476 18.0956 11.6926 18.0956C9.43762 18.0956 7.61953 16.2815 7.61953 14.056C7.61953 11.8305 9.43762 10.0165 11.6926 10.0165C13.9476 10.0165 15.7657 11.8305 15.7657 14.056Z"
    stroke="currentColor"
    strokeWidth="1.7"
  />
  <line
    stroke="currentColor"
    strokeLinecap="round"
    strokeWidth="1.7"
    x1="11.9267"
    x2="11.9267"
    y1="1.45986"
    y2="4.64939"
  />
  <line
    stroke="currentColor"
    strokeLinecap="round"
    strokeWidth="1.7"
    transform="matrix(-0.502567 0.864538 -0.8675 -0.497438 19.0767 2.44336)"
    x1="0.85"
    x2="4.04794"
    y1="-0.85"
    y2="-0.85"
  />
  <line
    stroke="currentColor"
    strokeLinecap="round"
    strokeWidth="1.7"
    transform="matrix(0.502566 0.864539 -0.8675 0.497438 3.07666 3.05469)"
    x1="0.85"
    x2="4.04794"
    y1="-0.85"
    y2="-0.85"
  />
</svg>