<svg xmlns="http://www.w3.org/2000/svg" viewBox="0 0 172 172" style="fill:#000">
  <g fill="none" stroke-miterlimit="10" font-family="none" font-weight="none" font-size="none" text-anchor="none" style="mix-blend-mode:normal">
    <path d="M0 172V0h172v172z"/>
    <path d="M86 10.32c-41.75623 0-75.68 33.92377-75.68 75.68 0 37.90582 27.95871 69.27594 64.37235 74.7461l3.95062.59797v-59.63563h-17.8786V89.60125h17.8786V73.52328c0-9.9006 2.37582-16.42129 6.3089-20.51235 3.93309-4.09105 9.74446-6.15437 17.83156-6.15437 6.46654 0 8.98224.39181 11.37485.68531v9.91016h-8.4186c-4.77673 0-8.69574 2.66507-10.72984 6.21484-2.0341 3.54978-2.66735 7.78817-2.66735 12.10719v13.82047h21.06328l-1.87453 12.10719H92.34249v59.73641l3.9036-.53078c36.93123-5.00873 65.4339-36.631 65.4339-74.90735 0-41.75623-33.92377-75.68-75.68-75.68zm0 6.88c38.03801 0 68.8 30.76199 68.8 68.8 0 33.47048-23.95685 60.99738-55.5775 67.19422v-44.6125h18.20781l3.99765-25.86719H99.22249v-6.94047c0-3.56891.65299-6.76666 1.7536-8.68735 1.1006-1.92069 2.16152-2.75469 4.76359-2.75469h15.2986V41.31358l-2.98313-.40313c-2.06328-.27919-6.77392-.9339-15.27172-.9339-9.29866 0-17.28029 2.53306-22.79 8.26406-5.50971 5.731-8.23047 14.26461-8.23047 25.28265v9.19797h-17.8786v25.86719h17.8786v44.39078c-31.11251-6.59066-54.56297-33.87112-54.56297-66.97922 0-38.03801 30.76199-68.8 68.8-68.8z" fill="#fff"/>
  </g>
</svg>