<svg width="47" height="48" viewBox="0 0 47 48" fill="none" xmlns="http://www.w3.org/2000/svg">
<path d="M33.9331 11.1901C33.9331 12.7801 35.2231 14.0701 36.8131 14.0701C38.4031 14.0701 39.6931 12.7801 39.6931 11.1901C39.6931 9.60006 38.4031 8.31006 36.8131 8.31006C35.2231 8.31006 33.9331 9.60006 33.9331 11.1901Z" fill="white"/>
<path d="M23.324 35.148C17.3454 35.148 12.5 30.3026 12.5 24.324C12.5 18.3457 17.3482 13.5 23.324 13.5C29.2998 13.5 34.148 18.3457 34.148 24.324C34.148 30.3026 29.3026 35.148 23.324 35.148Z" stroke="white" stroke-width="3"/>
<path d="M9.79167 1.5H37.2083C41.759 1.5 45.5 5.2763 45.5 10V38C45.5 42.7237 41.759 46.5 37.2083 46.5H9.79167C5.24275 46.5 1.5 42.7235 1.5 38V10C1.5 5.2765 5.24275 1.5 9.79167 1.5Z" stroke="white" stroke-width="3"/>
</svg>
