<svg xmlns="http://www.w3.org/2000/svg" viewBox="0 0 172 172" style="fill:#000">
  <g fill="none" stroke-miterlimit="10" font-family="none" font-weight="none" font-size="none" text-anchor="none" style="mix-blend-mode:normal">
    <path d="M0 172V0h172v172z"/>
    <path d="M55.04 10.32c-24.65626 0-44.72 20.06374-44.72 44.72v61.92c0 24.65626 20.06374 44.72 44.72 44.72h61.92c24.65626 0 44.72-20.06374 44.72-44.72V55.04c0-24.65626-20.06374-44.72-44.72-44.72zm0 6.88h61.92c20.9375 0 37.84 16.9025 37.84 37.84v61.92c0 20.9375-16.9025 37.84-37.84 37.84H55.04c-20.9375 0-37.84-16.9025-37.84-37.84V55.04c0-20.9375 16.9025-37.84 37.84-37.84zm72.24 20.64c-3.79972 0-6.88 3.08028-6.88 6.88 0 3.79972 3.08028 6.88 6.88 6.88 3.79972 0 6.88-3.08028 6.88-6.88 0-3.79972-3.08028-6.88-6.88-6.88zM86 48.16c-20.85771 0-37.84 16.98229-37.84 37.84 0 20.85771 16.98229 37.84 37.84 37.84 20.85771 0 37.84-16.98229 37.84-37.84 0-20.85771-16.98229-37.84-37.84-37.84zm0 6.88c17.13948 0 30.96 13.82052 30.96 30.96S103.13948 116.96 86 116.96 55.04 103.13948 55.04 86 68.86052 55.04 86 55.04z" fill="#fff"/>
  </g>
</svg>