<svg width="39" height="34" viewBox="0 0 39 34" fill="none" xmlns="http://www.w3.org/2000/svg">
<path d="M2.29735 22.809C1.85985 22.2895 1.51216 21.8497 1.26409 21.526C1.5097 21.2321 1.84797 20.8395 2.27008 20.3783C3.2327 19.3265 4.62523 17.9248 6.34305 16.5253C9.806 13.7039 14.4576 11 19.5 11C24.5424 11 29.194 13.7039 32.657 16.5253C34.3748 17.9248 35.7673 19.3265 36.7299 20.3783C37.152 20.8395 37.4903 21.2321 37.7359 21.526C37.4878 21.8497 37.1401 22.2895 36.7027 22.809C35.7385 23.954 34.3446 25.4791 32.6256 27.0014C29.1549 30.075 24.5137 33 19.5 33C14.4863 33 9.84515 30.075 6.37439 27.0014C4.65542 25.4791 3.26147 23.954 2.29735 22.809Z" stroke="white" stroke-width="2"/>
<circle cx="19" cy="22" r="7" stroke="white" stroke-width="2"/>
<line x1="19" y1="1" x2="19" y2="7" stroke="white" stroke-width="2" stroke-linecap="round"/>
<line x1="31.366" y1="4.36603" x2="28.366" y2="9.56218" stroke="white" stroke-width="2" stroke-linecap="round"/>
<line x1="6.36603" y1="4.36603" x2="9.36602" y2="9.56218" stroke="white" stroke-width="2" stroke-linecap="round"/>
</svg>
