<svg width="48" height="48" viewBox="0 0 48 48" fill="none" xmlns="http://www.w3.org/2000/svg">
<path d="M10 1.5H38C42.6954 1.5 46.5 5.30623 46.5 10V38C46.5 42.6938 42.6954 46.5 38 46.5H10C5.30643 46.5 1.5 42.6936 1.5 38V10C1.5 5.30643 5.30643 1.5 10 1.5Z" stroke="white" stroke-width="3"/>
<path d="M37.724 18.474C38.142 27.708 31.256 38.004 19.064 38.004C15.356 38.004 11.906 36.918 9 35.054C12.484 35.464 15.96 34.498 18.72 32.336C15.846 32.282 13.422 30.384 12.588 27.776C13.618 27.972 14.63 27.914 15.552 27.664C12.394 27.03 10.216 24.186 10.286 21.144C11.17 21.636 12.184 21.932 13.258 21.966C10.336 20.012 9.508 16.152 11.226 13.2C14.464 17.172 19.302 19.786 24.758 20.06C23.8 15.954 26.918 12 31.156 12C33.042 12 34.75 12.796 35.946 14.074C37.442 13.78 38.848 13.234 40.118 12.482C39.626 14.016 38.586 15.302 37.232 16.114C38.56 15.954 39.826 15.602 41.002 15.08C40.124 16.392 39.01 17.548 37.724 18.474Z" fill="white"/>
</svg>
