<svg xmlns="http://www.w3.org/2000/svg" viewBox="0 0 172 172" style="fill:#000">
  <g fill="none" stroke-miterlimit="10" font-family="none" font-weight="none" font-size="none" text-anchor="none" style="mix-blend-mode:normal">
    <path d="M0 172V0h172v172z"/>
    <path d="M86 6.88C42.34397 6.88 6.88 42.34397 6.88 86S42.34397 165.12 86 165.12s79.12-35.46397 79.12-79.12S129.65603 6.88 86 6.88zm0 6.88c39.93779 0 72.24 32.30221 72.24 72.24 0 39.93779-32.30221 72.24-72.24 72.24-39.93779 0-72.24-32.30221-72.24-72.24 0-39.93779 32.30221-72.24 72.24-72.24zm19.58515 34.60156c-12.38505 0-22.50109 10.11216-22.50109 22.49437 0 .08703.02584.16842.02687.25531-13.12045-1.74603-24.72699-8.22343-32.70015-17.99953-.71349-.87376-1.81-1.34223-2.93458-1.25377-1.12459.08847-2.13436.72263-2.70245 1.6972-1.93635 3.32873-3.0436 7.20821-3.0436 11.31438 0 3.65388 1.0179 7.04821 2.57328 10.11172-1.58786.33615-2.7248 1.73633-2.72781 3.35938v.24187c0 6.65307 3.11329 12.41509 7.72656 16.54156-.94617.90916-1.29278 2.27736-.89359 3.52734 1.92103 5.97503 6.3989 10.6528 12.0064 13.28969-4.48608 2.09832-9.29286 3.60125-14.59313 3.60125-1.41314 0-2.78683-.08033-4.13203-.24188-1.59435-.1931-3.11018.74257-3.65217 2.25434-.54199 1.51178.03408 3.19742 1.38795 4.06128 8.95937 5.74859 19.62815 9.1039 31.06078 9.1039 18.47503 0 33.07792-7.76107 42.83875-18.83265 9.76084-11.07158 14.82828-25.36074 14.82828-38.82094 0-.40423-.01862-.79101-.02687-1.18922 3.35001-2.68936 6.50068-5.65566 8.8889-9.23156.80854-1.21001.76827-2.79786-.10054-3.96533-.86882-1.16748-2.37823-1.662-3.76946-1.23498.556-1.08215 1.34302-2.02166 1.72-3.19813.43507-1.3597-.0148-2.84682-1.1306-3.73737-1.11579-.89055-2.66565-.99946-3.89503-.27372-3.00859 1.78266-6.3891 2.95794-9.89 3.77594-3.93319-3.35109-8.81965-5.65047-14.36469-5.65047zm0 6.88c4.51393 0 8.54827 1.88645 11.395 4.92484.80938.86613 2.00766 1.25456 3.17125 1.02797.52259-.10278.94238-.43557 1.45797-.55765-.06398.03959-.10337.10911-.16797.14781-1.33355.80066-1.96399 2.39649-1.53772 3.89239.42627 1.49589 1.80322 2.51969 3.3585 2.49714-.23629.18019-.37735.46433-.61812.63828-.93829.67693-1.47349 1.78015-1.42438 2.93609.03268.77143.05375 1.54603.05375 2.31797 0 11.71372-4.52102 24.53193-13.10828 34.27235C99.57788 117.07916 87.06153 123.84 70.4864 123.84c-5.68697 0-11.03736-1.13628-16.13172-2.86219 6.33738-1.3428 12.33743-3.58712 17.25375-7.44438 1.13999-.89901 1.59293-2.41689 1.13201-3.79361-.46091-1.37672-1.73646-2.31592-3.18795-2.34732-4.86984-.08844-8.62044-2.84283-11.42187-6.39625 1.02917-.13316 2.09362-.13794 3.07719-.40985 1.53839-.42136 2.58541-1.84489 2.52939-3.43895-.05602-1.59407-1.20038-2.94058-2.76455-3.25292-5.68085-1.14649-10.11227-5.40731-11.73765-10.91797 1.46303.3521 2.74493 1.13961 4.3 1.18922 1.53289.04694 2.91175-.9264 3.3808-2.38652.46905-1.46012-.085-3.05439-1.35845-3.90895-4.1959-2.80572-6.94719-7.55771-6.94719-13.00078 0-1.12488.60362-2.01894.82641-3.07047 9.77131 9.67279 22.77533 16.09251 37.41672 16.83047 1.08031.05415 2.12318-.40292 2.81552-1.23399.69233-.83107.95351-1.93935.70511-2.9921-.26774-1.13226-.40984-2.31347-.40984-3.5475 0-8.6637 6.95334-15.61437 15.62109-15.61437z" fill="#fff"/>
  </g>
</svg>